<?xml version="1.0" encoding="UTF-8"?>
<svg version="1.1" xmlns="http://www.w3.org/2000/svg" width="165" height="70">
<path d="M0 0 C1.47222394 -0.00621552 2.94443779 -0.01543881 4.41662598 -0.0274353 C8.40448822 -0.05075995 12.39101917 -0.03024001 16.37879419 -0.00039196 C20.55428354 0.024811 24.72970227 0.0142022 28.90524292 0.00872803 C35.91458684 0.00514572 42.9234047 0.02966841 49.93261719 0.07128906 C58.03652473 0.11910233 66.13960158 0.12431268 74.24361145 0.10633874 C82.04238864 0.08986837 89.84086853 0.1016964 97.63961411 0.12706757 C100.95776625 0.13747087 104.27571585 0.13826631 107.59387589 0.13141632 C111.49957438 0.12476256 115.40438922 0.14297076 119.30990601 0.18043137 C120.7433738 0.19024141 122.17692848 0.1915585 123.61040878 0.1837883 C125.56615731 0.17461597 127.5219776 0.19925641 129.47756958 0.22564697 C131.11957683 0.23237112 131.11957683 0.23237112 132.79475594 0.23923111 C135.61279297 0.87402344 135.61279297 0.87402344 137.96890068 3.23876572 C140.02581797 6.53612724 140.13977105 8.03461173 139.61279297 11.87402344 C138.75757379 14.60147918 137.68237355 17.22484757 136.61279297 19.87402344 C132.04902608 32.1712815 132.59900035 41.93251675 137.47705078 54.01464844 C139.11879639 58.09661617 140.30872256 61.40019036 139.61279297 65.87402344 C137.96890068 68.50928116 137.96890068 68.50928116 135.61279297 70.87402344 C132.79475594 71.50881577 132.79475594 71.50881577 129.47756958 71.5223999 C128.21861877 71.53938934 126.95966797 71.55637878 125.66256714 71.57388306 C124.2698339 71.56735123 122.87710309 71.56028368 121.484375 71.55273438 C120.01569097 71.56278542 118.54702001 71.57493289 117.07836914 71.58901978 C113.09055677 71.62037027 109.1033475 71.6197467 105.11544275 71.61151409 C101.7854214 71.60735543 98.45551868 71.61832498 95.12551773 71.62915826 C87.26815262 71.65430742 79.41108824 71.65316912 71.55371094 71.63574219 C63.45088698 71.61822591 55.34904747 71.64459509 47.24636948 71.69270873 C40.28737389 71.73249447 33.32868901 71.74511803 26.36958587 71.73599458 C22.21423771 71.7308122 18.05954975 71.73585857 13.90430069 71.76696014 C9.99518406 71.79502312 6.08755534 71.78909816 2.17848206 71.75724411 C0.74582239 71.75119563 -0.68694535 71.75702666 -2.11949539 71.77575302 C-12.78816355 71.90480107 -12.78816355 71.90480107 -16.57753754 69.46208954 C-19.80554799 66.00402077 -21.13977506 62.82690881 -21.16357422 58.04980469 C-21.18248718 56.95176514 -21.20140015 55.85372559 -21.22088623 54.72241211 C-21.20874084 53.55556885 -21.19659546 52.38872559 -21.18408203 51.18652344 C-21.18982239 49.97005127 -21.19556274 48.7535791 -21.20147705 47.50024414 C-21.20554972 44.93503959 -21.19454992 42.36977232 -21.16943359 39.8046875 C-21.1373075 35.88627778 -21.16915323 31.9719929 -21.20751953 28.05371094 C-21.20355451 25.55630603 -21.19586681 23.05890369 -21.18408203 20.56152344 C-21.19622742 19.39468018 -21.2083728 18.22783691 -21.22088623 17.02563477 C-21.20197327 15.92759521 -21.1830603 14.82955566 -21.16357422 13.69824219 C-21.15880066 12.74006592 -21.1540271 11.78188965 -21.14910889 10.79467773 C-18.2354969 -0.37428494 -10.11984195 -0.13228706 0 0 Z M-12.38720703 6.87402344 C-15.13463702 13.56309026 -15.13463702 13.56309026 -15.68359375 19.94140625 C-15.67302948 20.84884583 -15.66246521 21.7562854 -15.65158081 22.69122314 C-15.62363434 23.64357849 -15.59568787 24.59593384 -15.56689453 25.57714844 C-15.54756866 26.57736023 -15.5282428 27.57757202 -15.5083313 28.60809326 C-15.46366481 30.70928556 -15.41111578 32.81032364 -15.35107422 34.91113281 C-15.26210098 38.12785761 -15.20580302 41.34402614 -15.15283203 44.56152344 C-15.10530042 46.60844459 -15.05588686 48.65532309 -15.00439453 50.70214844 C-14.98859344 51.66260071 -14.97279236 52.62305298 -14.95651245 53.61260986 C-14.92703522 54.5074408 -14.89755798 55.40227173 -14.8671875 56.32421875 C-14.84703583 57.10839172 -14.82688416 57.8925647 -14.80612183 58.70050049 C-14.2603155 61.53239514 -13.39772052 62.80206036 -11.38720703 64.87402344 C-8.6874315 65.46659417 -8.6874315 65.46659417 -5.55964661 65.3550415 C-4.34388443 65.36054016 -3.12812225 65.36603882 -1.8755188 65.3717041 C-0.52630222 65.35754758 0.82291038 65.34300834 2.17211914 65.328125 C3.59126249 65.32699685 5.01040818 65.32762975 6.42955017 65.32989502 C10.28482534 65.33104437 14.13960439 65.3074998 17.99476409 65.27959919 C22.0226324 65.25462212 26.05051163 65.25224647 30.07844543 65.24749756 C37.70705478 65.23505687 45.33543528 65.20222061 52.96394378 65.1620996 C61.64821725 65.11741578 70.33250154 65.09540341 79.01686132 65.07531786 C96.88230169 65.03348882 114.74752894 64.96311566 132.61279297 64.87402344 C132.00665908 60.44810238 131.27101033 56.23557152 130.05029297 51.93652344 C129.64617187 50.49986328 129.64617187 50.49986328 129.23388672 49.03417969 C129.02892578 48.32132813 128.82396484 47.60847656 128.61279297 46.87402344 C127.95279297 46.87402344 127.29279297 46.87402344 126.61279297 46.87402344 C126.04978169 35.95160457 126.53857948 27.06512317 130.51904297 16.81542969 C131.78705811 13.92840431 131.78705811 13.92840431 131.61279297 10.87402344 C132.27279297 10.87402344 132.93279297 10.87402344 133.61279297 10.87402344 C133.61279297 9.55402344 133.61279297 8.23402344 133.61279297 6.87402344 C85.43279297 6.87402344 37.25279297 6.87402344 -12.38720703 6.87402344 Z " fill="#6265F0" transform="translate(21.38720703125,-0.8740234375)"/>
<path d="M0 0 C1.134375 0.020625 2.26875 0.04125 3.4375 0.0625 C4.0975 1.7125 4.7575 3.3625 5.4375 5.0625 C5.56125 4.423125 5.685 3.78375 5.8125 3.125 C6.01875 2.444375 6.225 1.76375 6.4375 1.0625 C9.63923254 -0.53836627 12.96327059 -0.43667089 16.4375 0.0625 C19.2475346 1.85613911 20.94690468 3.08130935 22.4375 6.0625 C22.5335207 7.71786064 22.56824554 9.37701436 22.5703125 11.03515625 C22.57224609 12.50758789 22.57224609 12.50758789 22.57421875 14.00976562 C22.57035156 15.03779297 22.56648438 16.06582031 22.5625 17.125 C22.56830078 18.6728418 22.56830078 18.6728418 22.57421875 20.25195312 C22.57292969 21.23228516 22.57164062 22.21261719 22.5703125 23.22265625 C22.56918457 24.12636963 22.56805664 25.03008301 22.56689453 25.96118164 C22.4375 28.0625 22.4375 28.0625 21.4375 29.0625 C17.9375 29.1875 17.9375 29.1875 14.4375 29.0625 C12.92328999 27.54828999 13.22440144 26.13777232 13.12109375 24.02734375 C13.07919922 23.21845703 13.03730469 22.40957031 12.99414062 21.57617188 C12.95482422 20.72603516 12.91550781 19.87589844 12.875 19 C12.83181641 18.14599609 12.78863281 17.29199219 12.74414062 16.41210938 C12.63773298 14.29577963 12.53708269 12.17916187 12.4375 10.0625 C8.96602158 9.31292843 8.96602158 9.31292843 5.4375 9.0625 C5.44273682 9.63282959 5.44797363 10.20315918 5.45336914 10.79077148 C5.47408221 13.36050323 5.4871419 15.93021747 5.5 18.5 C5.50837891 19.39783203 5.51675781 20.29566406 5.52539062 21.22070312 C5.52861328 22.07470703 5.53183594 22.92871094 5.53515625 23.80859375 C5.54039307 24.59935303 5.54562988 25.3901123 5.55102539 26.20483398 C5.4375 28.0625 5.4375 28.0625 4.4375 29.0625 C2.625 29.1953125 2.625 29.1953125 0.4375 29.1875 C-0.284375 29.19007812 -1.00625 29.19265625 -1.75 29.1953125 C-3.5625 29.0625 -3.5625 29.0625 -4.5625 28.0625 C-4.66233058 26.07492972 -4.69330753 24.0838248 -4.6953125 22.09375 C-4.69660156 20.88332031 -4.69789062 19.67289063 -4.69921875 18.42578125 C-4.69535156 17.15089844 -4.69148438 15.87601563 -4.6875 14.5625 C-4.69136719 13.28761719 -4.69523437 12.01273438 -4.69921875 10.69921875 C-4.69792969 9.48878906 -4.69664063 8.27835938 -4.6953125 7.03125 C-4.69418457 5.91169922 -4.69305664 4.79214844 -4.69189453 3.63867188 C-4.4909154 -0.36270878 -4.1576059 0.07294045 0 0 Z " fill="#6164F0" transform="translate(112.5625,24.9375)"/>
<path d="M0 0 C0.66209473 -0.00095673 1.32418945 -0.00191345 2.00634766 -0.00289917 C3.40852961 -0.00358076 4.8107147 -0.00172792 6.21289062 0.00244141 C8.36595713 0.00779004 10.51881502 0.0024958 12.671875 -0.00390625 C14.03125046 -0.00324546 15.3906258 -0.00196429 16.75 0 C18.61785156 0.00169189 18.61785156 0.00169189 20.5234375 0.00341797 C23.375 0.1328125 23.375 0.1328125 24.375 1.1328125 C24.5 4.1328125 24.5 4.1328125 24.375 7.1328125 C23.375 8.1328125 23.375 8.1328125 21.08984375 8.23046875 C19.71505859 8.21306641 19.71505859 8.21306641 18.3125 8.1953125 C17.39339844 8.18628906 16.47429688 8.17726563 15.52734375 8.16796875 C14.81707031 8.15636719 14.10679688 8.14476562 13.375 8.1328125 C13.38285522 9.44270142 13.38285522 9.44270142 13.39086914 10.77905273 C13.40787751 14.00870523 13.42043369 17.23833495 13.42993164 20.46801758 C13.4349708 21.86776478 13.44180216 23.2675067 13.45043945 24.66723633 C13.4625232 26.67527027 13.46769807 28.68334207 13.47265625 30.69140625 C13.48051147 32.50596313 13.48051147 32.50596313 13.48852539 34.35717773 C13.375 37.1328125 13.375 37.1328125 12.375 38.1328125 C8.875 38.2578125 8.875 38.2578125 5.375 38.1328125 C4.375 37.1328125 4.375 37.1328125 4.26147461 34.35717773 C4.26671143 33.14747314 4.27194824 31.93776855 4.27734375 30.69140625 C4.28056641 29.38623047 4.28378906 28.08105469 4.28710938 26.73632812 C4.29546599 25.3476556 4.30393095 23.95898373 4.3125 22.5703125 C4.31751334 21.17773594 4.32207653 19.78515769 4.32617188 18.39257812 C4.33800566 14.9726138 4.3544912 11.55273406 4.375 8.1328125 C3.59253906 8.14441406 2.81007813 8.15601563 2.00390625 8.16796875 C0.99199219 8.17699219 -0.01992188 8.18601562 -1.0625 8.1953125 C-2.07183594 8.20691406 -3.08117187 8.21851563 -4.12109375 8.23046875 C-6.625 8.1328125 -6.625 8.1328125 -7.625 7.1328125 C-7.75 4.1328125 -7.75 4.1328125 -7.625 1.1328125 C-5.74180732 -0.75038018 -2.50569863 0.00226965 0 0 Z " fill="#6265F0" transform="translate(24.625,15.8671875)"/>
<path d="M0 0 C3.1875 -0.5 3.1875 -0.5 7 0 C9.15024236 2.42700622 10.59103494 5.09116891 12 8 C12.268125 7.4225 12.53625 6.845 12.8125 6.25 C14.0525647 3.90040373 15.19443016 1.9556766 17 0 C19.95262073 -0.74224846 21.9203373 -0.41758138 25 0 C25.33 0.66 25.66 1.32 26 2 C24.25084832 5.07578101 22.31402629 8.00039478 20.37109375 10.95703125 C18.68800296 13.86323468 18.68800296 13.86323468 19.62109375 16.5859375 C20.07613281 17.38257812 20.53117187 18.17921875 21 19 C21.42539063 19.81082031 21.85078125 20.62164062 22.2890625 21.45703125 C22.72992188 22.23433594 23.17078125 23.01164062 23.625 23.8125 C24.07101563 24.60269531 24.51703125 25.39289062 24.9765625 26.20703125 C25.31429687 26.79871094 25.65203125 27.39039062 26 28 C25 29 25 29 21.25 29.5 C18.46264519 29.5 17.40391685 29.38468271 15.359375 27.4375 C14.11920398 25.66989992 13.01167861 23.90662506 12 22 C11.72027344 22.5053125 11.44054687 23.010625 11.15234375 23.53125 C9.8889158 25.57873452 8.71454814 27.30667152 7 29 C3.1875 29.4375 3.1875 29.4375 0 29 C-0.33 28.01 -0.66 27.02 -1 26 C0.41177798 23.3573281 2.07317669 20.95420504 3.75 18.47265625 C5.18679809 16.15761239 5.18679809 16.15761239 4.8515625 13.96875 C3.50073518 10.84573638 1.73090734 8.02051948 -0.0390625 5.12109375 C-1 3 -1 3 0 0 Z " fill="#6264F0" transform="translate(66,25)"/>
<path d="M0 0 C3.5 0.125 3.5 0.125 4.5 1.125 C4.59983058 3.11257028 4.63080753 5.1036752 4.6328125 7.09375 C4.63474609 8.90939453 4.63474609 8.90939453 4.63671875 10.76171875 C4.63285156 12.03660156 4.62898438 13.31148437 4.625 14.625 C4.62886719 15.89988281 4.63273437 17.17476562 4.63671875 18.48828125 C4.63542969 19.69871094 4.63414063 20.90914062 4.6328125 22.15625 C4.63168457 23.27580078 4.63055664 24.39535156 4.62939453 25.54882812 C4.5 28.125 4.5 28.125 3.5 29.125 C0 29.25 0 29.25 -3.5 29.125 C-5.30279191 27.32220809 -4.63036605 24.58452299 -4.6328125 22.15625 C-4.63410156 20.94582031 -4.63539062 19.73539063 -4.63671875 18.48828125 C-4.63285156 17.21339844 -4.62898438 15.93851563 -4.625 14.625 C-4.62886719 13.35011719 -4.63273437 12.07523438 -4.63671875 10.76171875 C-4.63542969 9.55128906 -4.63414063 8.34085938 -4.6328125 7.09375 C-4.63168457 5.97419922 -4.63055664 4.85464844 -4.62939453 3.70117188 C-4.43018614 -0.2649544 -4.10975636 0.14677701 0 0 Z " fill="#6265F0" transform="translate(99.5,24.875)"/>
<path d="M0 0 C3.5 0.125 3.5 0.125 4.5 1.125 C4.59983058 3.11257028 4.63080753 5.1036752 4.6328125 7.09375 C4.63474609 8.90939453 4.63474609 8.90939453 4.63671875 10.76171875 C4.63285156 12.03660156 4.62898438 13.31148437 4.625 14.625 C4.62886719 15.89988281 4.63273437 17.17476562 4.63671875 18.48828125 C4.63542969 19.69871094 4.63414063 20.90914062 4.6328125 22.15625 C4.63168457 23.27580078 4.63055664 24.39535156 4.62939453 25.54882812 C4.5 28.125 4.5 28.125 3.5 29.125 C0 29.25 0 29.25 -3.5 29.125 C-5.30279191 27.32220809 -4.63036605 24.58452299 -4.6328125 22.15625 C-4.63410156 20.94582031 -4.63539062 19.73539063 -4.63671875 18.48828125 C-4.63285156 17.21339844 -4.62898438 15.93851563 -4.625 14.625 C-4.62886719 13.35011719 -4.63273437 12.07523438 -4.63671875 10.76171875 C-4.63542969 9.55128906 -4.63414063 8.34085938 -4.6328125 7.09375 C-4.63168457 5.97419922 -4.63055664 4.85464844 -4.62939453 3.70117188 C-4.43018614 -0.2649544 -4.10975636 0.14677701 0 0 Z " fill="#6466F0" transform="translate(56.5,24.875)"/>
<path d="M0 0 C3.29714793 0.32971479 4.6226839 0.6226839 7 3 C6.63318342 5.93453261 6.13562754 6.86437246 4 9 C1.5 9.25 1.5 9.25 -1 9 C-1.66 8.34 -2.32 7.68 -3 7 C-2.67028521 3.70285207 -2.3773161 2.3773161 0 0 Z " fill="#6164F0" transform="translate(55,14)"/>
<path d="M0 0 C3.29714793 0.32971479 4.6226839 0.6226839 7 3 C6.44444444 7.55555556 6.44444444 7.55555556 5 9 C2.5625 9.1875 2.5625 9.1875 0 9 C-2 7 -2 7 -2.25 4.5 C-2 2 -2 2 0 0 Z " fill="#6265F0" transform="translate(97,14)"/>
<path d="M0 0 C-0.46800711 4.05606165 -0.87953208 7.46588679 -3 11 C-2.67 8.69 -2.34 6.38 -2 4 C-2.66 4 -3.32 4 -4 4 C-4 3.01 -4 2.02 -4 1 C-2 0 -2 0 0 0 Z " fill="#6F72F1" transform="translate(9,3)"/>
</svg>
