<?xml version="1.0" encoding="UTF-8"?>
<svg version="1.1" xmlns="http://www.w3.org/2000/svg" width="310" height="140">
<path d="M0 0 C0.94328846 -0.00644889 1.88657692 -0.01289778 2.85844988 -0.0195421 C4.40046213 -0.01489629 4.40046213 -0.01489629 5.97362614 -0.01015663 C7.62139761 -0.0169533 7.62139761 -0.0169533 9.30245739 -0.02388728 C12.99042063 -0.03656692 16.67823687 -0.0349086 20.36621952 -0.03325844 C23.00744013 -0.03924139 25.64864916 -0.04598959 28.28986454 -0.05361366 C34.72349696 -0.07021941 41.15709273 -0.07572299 47.59074479 -0.07683842 C52.81988948 -0.07778895 58.04902209 -0.0818995 63.27816296 -0.08823967 C78.10402951 -0.10584975 92.92986712 -0.11507873 107.75574421 -0.11357872 C108.55484266 -0.11349881 109.35394112 -0.1134189 110.17725468 -0.11333656 C111.37736568 -0.11321392 111.37736568 -0.11321392 112.60172135 -0.1130888 C125.5724853 -0.11227563 138.54313319 -0.13142169 151.51386356 -0.1596133 C164.83238526 -0.18833247 178.15085034 -0.20215417 191.4694038 -0.20042574 C198.94671599 -0.19976158 206.42390646 -0.20526558 213.90119076 -0.22678185 C220.26640776 -0.24498081 226.63144786 -0.24935155 232.9966796 -0.235763 C236.244103 -0.2292271 239.49111591 -0.23130638 242.73852062 -0.2464695 C246.25941462 -0.26184693 249.77941235 -0.25266246 253.30028629 -0.23720741 C254.32606374 -0.24749454 255.35184118 -0.25778167 256.40870279 -0.26838052 C263.85781709 -0.19594772 266.97202607 1.37786553 272.51294804 6.31976891 C275.40471585 9.63994677 275.43905579 12.85212651 275.3788538 17.13452721 C275.09849558 20.47033925 274.03721336 23.34563741 272.86451054 26.46820641 C272.62509739 27.12124748 272.38568424 27.77428856 272.13901615 28.44711876 C271.37989933 30.51355374 270.60415693 32.57314563 269.82544804 34.63226891 C260.04757067 60.71071864 262.17729676 78.69211465 272.20215702 104.47675133 C277.00530864 117.17258439 277.00530864 117.17258439 274.01294804 123.94476891 C268.66386267 130.76946403 268.66386267 130.76946403 264.20044804 132.25726891 C262.6867081 132.35063594 261.1691913 132.38814807 259.65257835 132.39148998 C258.24546891 132.39817675 258.24546891 132.39817675 256.80993301 132.4049986 C255.7774634 132.40481424 254.74499379 132.40462988 253.68123722 132.40443993 C252.58584289 132.40811661 251.49044855 132.4117933 250.36186045 132.41558141 C246.67239083 132.42663992 242.98294935 132.43046576 239.29346561 132.43427086 C236.65578893 132.44053385 234.01811528 132.44716755 231.38044071 132.45418358 C223.45129537 132.47394622 215.52214876 132.48401407 207.59298494 132.49291137 C203.85877733 132.49729471 200.12457114 132.50266141 196.39036465 132.50790024 C183.97651845 132.52491253 171.56267313 132.53940655 159.14881706 132.54664898 C155.92733922 132.54855887 152.70586139 132.5504792 149.48438358 132.55243492 C148.283363 132.55316053 148.283363 132.55316053 147.05807938 132.5539008 C134.08854512 132.56220051 121.11910311 132.5875364 108.14960913 132.6200156 C94.83340753 132.65309109 81.51725282 132.67109819 68.20100993 132.67429322 C60.72471375 132.6764579 53.24855209 132.68520024 45.77229595 132.71075439 C39.40490106 132.73246815 33.03767335 132.74050857 26.67024563 132.73078761 C23.42258165 132.72624472 20.17533437 132.7303129 16.9277029 132.74754906 C13.40303613 132.76520891 9.87924408 132.75818979 6.35457706 132.7450161 C5.33326106 132.75598534 4.31194506 132.76695459 3.25968009 132.77825624 C-4.11590575 132.71171399 -9.51835112 131.18952558 -15.07689571 126.22211266 C-15.89867306 125.2185775 -15.89867306 125.2185775 -16.73705196 124.19476891 C-17.58589962 123.18736656 -17.58589962 123.18736656 -18.45189571 122.15961266 C-20.5684788 119.17185624 -20.92620045 116.62656114 -20.94672298 113.07129478 C-20.95745594 111.7929174 -20.95745594 111.7929174 -20.96840572 110.48871422 C-20.97109463 109.55672203 -20.97378353 108.62472984 -20.97655392 107.66449547 C-20.98312511 106.68043724 -20.98969631 105.69637901 -20.99646664 104.68250084 C-21.0162016 101.42096444 -21.02786275 98.15947409 -21.03783321 94.89789391 C-21.04190874 93.78406082 -21.04598427 92.67022774 -21.0501833 91.52264214 C-21.07104493 85.62722013 -21.08534624 79.73182141 -21.09471798 73.83637047 C-21.1057822 67.74881465 -21.14018236 61.66162437 -21.17988968 55.57419777 C-21.20604155 50.89184453 -21.21440857 46.20957858 -21.21799946 41.52715874 C-21.22286912 39.28330326 -21.23449386 37.03945178 -21.25303745 34.79566765 C-21.27739762 31.65269103 -21.27646923 28.51066269 -21.26952267 25.36762047 C-21.28233273 24.4437252 -21.29514278 23.51982994 -21.30834103 22.56793785 C-21.25338231 15.73328936 -19.73153806 11.49098064 -15.05345821 6.33148766 C-14.49529415 5.87387047 -13.93713009 5.41625328 -13.36205196 4.94476891 C-12.80646603 4.47426109 -12.25088009 4.00375328 -11.67845821 3.51898766 C-7.94014857 1.00864667 -4.47688342 0.00776749 0 0 Z M-6.79955196 14.25726891 C-6.79955196 14.91726891 -6.79955196 15.57726891 -6.79955196 16.25726891 C-7.45955196 16.25726891 -8.11955196 16.25726891 -8.79955196 16.25726891 C-9.94629744 20.82190259 -9.94741765 25.3167951 -9.94481564 29.99139977 C-9.94817425 30.86031349 -9.95153286 31.72922722 -9.95499325 32.62447166 C-9.9644747 35.49036662 -9.96644484 38.356203 -9.96752071 41.22211266 C-9.97073486 43.21841519 -9.97409905 45.21471748 -9.97760677 47.21101952 C-9.98359074 51.39302682 -9.98544739 55.57501348 -9.9848547 59.75702477 C-9.98475303 65.11137544 -9.99841338 70.46559364 -10.01562691 75.81991291 C-10.02675294 79.94205393 -10.02877373 84.06416295 -10.02824497 88.18631744 C-10.02942386 90.16024355 -10.03384053 92.13417052 -10.04157734 94.10808182 C-10.05139083 96.87006319 -10.04849395 99.63175738 -10.04247189 102.39374352 C-10.04809139 103.2058831 -10.0537109 104.01802269 -10.05950069 104.85477257 C-10.0346777 109.34237079 -9.74056483 113.11761675 -7.79955196 117.25726891 C-4.90820196 119.91647956 -3.02161575 120.63187928 0.87809467 120.62641239 C2.29036599 120.63537211 2.29036599 120.63537211 3.73116803 120.64451283 C4.76229081 120.63577431 5.79341359 120.62703578 6.85578251 120.61803246 C8.50249711 120.62187737 8.50249711 120.62187737 10.18247867 120.62579995 C13.87383758 120.63075502 17.56479064 120.61421604 21.2561121 120.59784508 C23.89707202 120.59699918 26.53800681 120.59734101 29.17896366 120.59917259 C34.87131065 120.60074616 40.56355453 120.59132826 46.25587559 120.57445908 C54.48601358 120.55008494 62.71610169 120.54226544 70.94627187 120.5384951 C84.29892917 120.53192812 97.65153151 120.51196028 111.00415897 120.48358727 C123.97551034 120.45605307 136.94684679 120.43481636 149.91822147 120.42206383 C150.71768539 120.42127566 151.51714932 120.42048749 152.34083942 120.41967543 C156.35148788 120.41576034 160.36213645 120.41196921 164.37278509 120.40823972 C197.64871275 120.37713614 230.92457304 120.32429365 264.20044804 120.25726891 C264.20044804 118.27726891 264.20044804 116.29726891 264.20044804 114.25726891 C263.54044804 114.25726891 262.88044804 114.25726891 262.20044804 114.25726891 C262.01470219 113.19886803 262.01470219 113.19886803 261.8252039 112.11908531 C261.16995144 109.1175733 260.24885307 106.35680682 259.20435429 103.46820641 C258.6136414 101.80724937 258.6136414 101.80724937 258.01099491 100.11273766 C257.18685429 97.81443001 256.35880375 95.51752021 255.52661991 93.22211266 C247.68773874 71.0993322 250.16788004 53.44687465 258.38794804 31.69476891 C259.30545335 29.25872211 260.215924 26.82001103 261.11841679 24.37836266 C261.7181934 22.79172813 261.7181934 22.79172813 262.33008671 21.17304039 C263.17682877 18.33639511 263.45998308 16.19438982 263.20044804 13.25726891 C261.63440314 11.69122401 260.10902203 12.13053741 257.93155956 12.12863445 C257.00483539 12.12541001 256.07811121 12.12218556 255.12330449 12.1188634 C254.09327144 12.12041201 253.06323839 12.12196061 252.00199223 12.12355614 C250.91702957 12.12129058 249.83206692 12.11902502 248.7142266 12.11669081 C245.04832761 12.1103185 241.38246527 12.11118224 237.71656132 12.11200523 C235.10062455 12.10901575 232.48468822 12.10561371 229.86875248 12.10182762 C223.48237282 12.09350451 217.09600238 12.09077203 210.70961775 12.09021524 C205.52040134 12.08974083 200.33118799 12.08768982 195.14197254 12.08451462 C180.44329357 12.0757032 165.74462192 12.07109596 151.04594029 12.07184509 C149.85615942 12.07190503 149.85615942 12.07190503 148.64234257 12.07196617 C147.84819147 12.07200705 147.05404037 12.07204793 146.23582409 12.07209005 C133.36304762 12.07249657 120.4903004 12.06292683 107.61753239 12.0488278 C94.41328925 12.03447938 81.20906039 12.02755679 68.00480926 12.02842158 C60.58625643 12.0287541 53.16773425 12.02598303 45.74918842 12.01524353 C38.77419192 12.00521123 31.7992613 12.00545818 24.82426167 12.01276016 C22.25832875 12.01381058 19.69239187 12.01141627 17.1264658 12.0053997 C13.63518992 11.9977411 10.14414172 12.00228375 6.65287113 12.01003075 C5.62729953 12.00488718 4.60172793 11.99974362 3.5450784 11.99444419 C2.61313873 11.99904299 1.68119906 12.00364178 0.72101879 12.00837994 C-0.48852665 12.00805388 -0.48852665 12.00805388 -1.72250736 12.00772125 C-4.10608072 12.13554808 -4.10608072 12.13554808 -6.79955196 14.25726891 Z " fill="#6265F0" transform="translate(24.799551963806152,3.7427310943603516)"/>
<path d="M0 0 C1.1859375 0.00257812 2.371875 0.00515625 3.59375 0.0078125 C4.7796875 0.00523438 5.965625 0.00265625 7.1875 0 C10.09375 0.1328125 10.09375 0.1328125 11.09375 1.1328125 C11.09375 3.46614583 11.09375 5.79947917 11.09375 8.1328125 C11.42375 8.4628125 11.75375 8.7928125 12.09375 9.1328125 C12.135 8.5759375 12.17625 8.0190625 12.21875 7.4453125 C13.25119791 4.71670018 14.58751864 2.92800771 16.88671875 1.12109375 C21.95951543 -1.15044176 27.69964044 -0.54064945 33.09375 0.1328125 C38.64409843 2.46980131 41.59818702 6.77691733 44.09375 12.1328125 C44.7235662 15.32416101 44.70572187 18.38532705 44.6171875 21.62890625 C44.61248444 22.50305679 44.60778137 23.37720734 44.60293579 24.27784729 C44.58174791 27.04283518 44.52517264 29.80584412 44.46875 32.5703125 C44.45222718 34.45245593 44.43788318 36.33461983 44.42578125 38.21679688 C44.28990678 51.93665572 44.28990678 51.93665572 43.09375 53.1328125 C40.76214945 53.23190552 38.42745058 53.26251754 36.09375 53.2578125 C34.815 53.26039062 33.53625 53.26296875 32.21875 53.265625 C29.09375 53.1328125 29.09375 53.1328125 28.09375 52.1328125 C27.97077465 49.57621977 27.90768192 47.04242656 27.8828125 44.484375 C27.85474269 42.90623965 27.82607822 41.32811478 27.796875 39.75 C27.75559578 37.25260726 27.71872466 34.75541001 27.69238281 32.2578125 C27.66480458 29.85375101 27.61893178 27.45059059 27.5703125 25.046875 C27.56705963 24.29991364 27.56380676 23.55295227 27.56045532 22.78335571 C27.47000823 18.74584909 27.47000823 18.74584909 25.77880859 15.16552734 C22.85256945 13.37213534 20.41424321 13.72503263 17.09375 14.1328125 C14.75512322 15.60754613 14.75512322 15.60754613 13.09375 18.1328125 C12.68766242 20.85982809 12.51230411 23.19943254 12.51953125 25.92578125 C12.49828438 27.04573235 12.49828438 27.04573235 12.47660828 28.18830872 C12.43476712 30.5657911 12.41947469 32.94251397 12.40625 35.3203125 C12.37722266 37.70847074 12.34274147 40.09643551 12.30375671 42.48445129 C12.28121358 43.96897122 12.26542817 45.45361154 12.25691223 46.9382782 C12.20334212 52.02322038 12.20334212 52.02322038 11.09375 53.1328125 C8.76214945 53.23190552 6.42745058 53.26251754 4.09375 53.2578125 C2.815 53.26039062 1.53625 53.26296875 0.21875 53.265625 C-2.90625 53.1328125 -2.90625 53.1328125 -3.90625 52.1328125 C-4.00479422 50.5421794 -4.03423694 48.94719773 -4.03564453 47.35351562 C-4.03879669 46.3357605 -4.04194885 45.31800537 -4.04519653 44.26940918 C-4.0431723 43.16214478 -4.04114807 42.05488037 -4.0390625 40.9140625 C-4.04001923 39.78585083 -4.04097595 38.65763916 -4.04196167 37.49523926 C-4.04264368 35.10441024 -4.04078797 32.71357939 -4.03662109 30.32275391 C-4.03127316 26.64872099 -4.03656543 22.97481033 -4.04296875 19.30078125 C-4.04230797 16.98437473 -4.04102682 14.66796828 -4.0390625 12.3515625 C-4.04209885 10.69066589 -4.04209885 10.69066589 -4.04519653 8.99621582 C-4.04204437 7.97846069 -4.03889221 6.96070557 -4.03564453 5.91210938 C-4.03484894 5.01133667 -4.03405334 4.11056396 -4.03323364 3.18249512 C-3.83096168 -0.08243979 -3.32455299 0.1519285 0 0 Z " fill="#6164F0" transform="translate(207.90625,51.8671875)"/>
<path d="M0 0 C1.09783813 -0.00315216 2.19567627 -0.00630432 3.32678223 -0.009552 C5.11892151 -0.00651566 5.11892151 -0.00651566 6.94726562 -0.00341797 C8.16426147 -0.00437469 9.38125732 -0.00533142 10.63513184 -0.00631714 C13.21427461 -0.00699919 15.79341909 -0.00514319 18.37255859 -0.00097656 C22.33630198 0.00437131 26.29993204 -0.00092076 30.26367188 -0.00732422 C32.76237004 -0.00666344 35.26106814 -0.00538229 37.75976562 -0.00341797 C38.95452515 -0.0054422 40.14928467 -0.00746643 41.38024902 -0.009552 C42.47808716 -0.00639984 43.57592529 -0.00324768 44.70703125 0 C46.16477966 0.00119339 46.16477966 0.00119339 47.65197754 0.00241089 C49.85351562 0.12939453 49.85351562 0.12939453 50.85351562 1.12939453 C50.95225379 3.12739025 50.98323362 5.12896611 50.97851562 7.12939453 C50.98238281 8.76908203 50.98238281 8.76908203 50.98632812 10.44189453 C50.85351562 13.12939453 50.85351562 13.12939453 49.85351562 14.12939453 C48.36479703 14.21608885 46.87207063 14.23642947 45.38085938 14.22705078 C44.48173828 14.22382812 43.58261719 14.22060547 42.65625 14.21728516 C41.71072266 14.20890625 40.76519531 14.20052734 39.79101562 14.19189453 C38.84162109 14.18738281 37.89222656 14.18287109 36.9140625 14.17822266 C34.56048497 14.16639563 32.20703085 14.14991478 29.85351562 14.12939453 C29.85573624 14.81621811 29.85795685 15.50304169 29.86024475 16.2106781 C29.88229458 23.33144615 29.89742095 30.45220457 29.90844727 37.57299805 C29.91348945 40.23380934 29.92032298 42.89461785 29.92895508 45.55541992 C29.94102571 49.37044969 29.94674492 53.18544297 29.95117188 57.00048828 C29.95633316 58.19838486 29.96149445 59.39628143 29.96681213 60.63047791 C29.96688766 61.73154373 29.9669632 62.83260956 29.96704102 63.96704102 C29.96926163 64.9418895 29.97148224 65.91673798 29.97377014 66.92112732 C29.85351562 69.12939453 29.85351562 69.12939453 28.85351562 70.12939453 C26.52191507 70.22848755 24.18721621 70.25909957 21.85351562 70.25439453 C20.57476562 70.25697266 19.29601562 70.25955078 17.97851562 70.26220703 C14.85351562 70.12939453 14.85351562 70.12939453 13.85351562 69.12939453 C13.75992373 67.41074044 13.73606951 65.68823709 13.73999023 63.96704102 C13.74006577 62.86597519 13.7401413 61.76490936 13.74021912 60.63047791 C13.7453804 59.43258133 13.75054169 58.23468475 13.75585938 57.00048828 C13.75727432 55.78112076 13.75868927 54.56175323 13.76014709 53.30543518 C13.76576596 49.39256383 13.77832166 45.47974872 13.79101562 41.56689453 C13.79602819 38.92171306 13.80059152 36.2765307 13.8046875 33.63134766 C13.81574151 27.13067727 13.83249799 20.63003992 13.85351562 14.12939453 C12.99802124 14.13724976 12.99802124 14.13724976 12.12524414 14.14526367 C9.55551239 14.16597674 6.98579816 14.17903643 4.41601562 14.19189453 C3.06926758 14.20446289 3.06926758 14.20446289 1.6953125 14.21728516 C0.41430664 14.22211914 0.41430664 14.22211914 -0.89257812 14.22705078 C-1.6833374 14.2322876 -2.47409668 14.23752441 -3.28881836 14.24291992 C-5.14648438 14.12939453 -5.14648438 14.12939453 -6.14648438 13.12939453 C-6.24522254 11.13139881 -6.27620237 9.12982295 -6.27148438 7.12939453 C-6.2740625 6.03626953 -6.27664062 4.94314453 -6.27929688 3.81689453 C-6.04990534 -0.82491059 -4.15984297 0.00340547 0 0 Z " fill="#6265F0" transform="translate(41.146484375,34.87060546875)"/>
<path d="M0 0 C2.24834496 -0.13526139 4.49902514 -0.23210804 6.75 -0.3125 C8.00296875 -0.37050781 9.2559375 -0.42851563 10.546875 -0.48828125 C14 0 14 0 16.25 2.15625 C18.00388354 5.00631076 19.68243613 7.85550451 21.25 10.8125 C21.77078125 11.78832031 22.2915625 12.76414062 22.828125 13.76953125 C23.21484375 14.50558594 23.6015625 15.24164063 24 16 C24.56589844 14.92878906 25.13179687 13.85757813 25.71484375 12.75390625 C26.45563367 11.3567202 27.19652429 9.95958753 27.9375 8.5625 C28.31068359 7.85544922 28.68386719 7.14839844 29.06835938 6.41992188 C31.88671875 1.11328125 31.88671875 1.11328125 33 0 C35.35313555 -0.07271741 37.70833668 -0.08370868 40.0625 -0.0625 C41.35285156 -0.05347656 42.64320313 -0.04445312 43.97265625 -0.03515625 C44.97167969 -0.02355469 45.97070312 -0.01195312 47 0 C47.495 1.485 47.495 1.485 48 3 C46.84082031 5.29321289 46.84082031 5.29321289 45.078125 7.97265625 C44.46582031 8.95556641 43.85351562 9.93847656 43.22265625 10.95117188 C41.91535273 13.01308722 40.58472556 15.06041166 39.23046875 17.09179688 C35.71762227 22.51549048 35.71762227 22.51549048 35.55322266 28.69482422 C36.8418138 31.32178042 38.30719147 33.61570942 40 36 C40.83824115 37.39133512 41.66948405 38.78692131 42.4921875 40.1875 C43.69506836 42.12547472 44.9099553 44.05503831 46.1328125 45.98046875 C47.14646302 47.61920376 48.08115941 49.30628463 49 51 C48.505 51.99 48.505 51.99 48 53 C45.75165504 53.13526139 43.50097486 53.23210804 41.25 53.3125 C39.99703125 53.37050781 38.7440625 53.42851563 37.453125 53.48828125 C34 53 34 53 31.75 50.84375 C29.99611646 47.99368924 28.31756387 45.14449549 26.75 42.1875 C26.22921875 41.21167969 25.7084375 40.23585937 25.171875 39.23046875 C24.59179688 38.12638672 24.59179688 38.12638672 24 37 C23.36191406 38.07121094 22.72382813 39.14242187 22.06640625 40.24609375 C21.23184812 41.64327534 20.39720849 43.04040824 19.5625 44.4375 C19.14162109 45.14455078 18.72074219 45.85160156 18.28710938 46.58007812 C15.11328125 51.88671875 15.11328125 51.88671875 14 53 C11.64686445 53.07271741 9.29166332 53.08370868 6.9375 53.0625 C5.64714844 53.05347656 4.35679688 53.04445312 3.02734375 53.03515625 C2.02832031 53.02355469 1.02929688 53.01195312 0 53 C-1 50 -1 50 0.09570312 47.71923828 C0.65193359 46.84509277 1.20816406 45.97094727 1.78125 45.0703125 C2.37550781 44.10996094 2.96976562 43.14960937 3.58203125 42.16015625 C4.85715099 40.14229874 6.13578122 38.12665515 7.41796875 36.11328125 C8.01222656 35.15035156 8.60648438 34.18742187 9.21875 33.1953125 C9.77498047 32.31891113 10.33121094 31.44250977 10.90429688 30.53955078 C12.24635463 27.42901495 12.08072492 26.17825422 11 23 C9.78368407 20.48722456 9.78368407 20.48722456 8.2421875 17.98828125 C7.69949219 17.06595703 7.15679687 16.14363281 6.59765625 15.19335938 C5.44199923 13.260713 4.28574176 11.32842556 3.12890625 9.39648438 C2.58878906 8.47802734 2.04867187 7.55957031 1.4921875 6.61328125 C0.99058105 5.77579346 0.48897461 4.93830566 -0.02783203 4.07543945 C-0.34864746 3.39054443 -0.66946289 2.70564941 -1 2 C-0.67 1.34 -0.34 0.68 0 0 Z " fill="#6164F0" transform="translate(123,52)"/>
<path d="M0 0 C1.27875 0.00257812 2.5575 0.00515625 3.875 0.0078125 C5.15375 0.00523438 6.4325 0.00265625 7.75 0 C10.875 0.1328125 10.875 0.1328125 11.875 1.1328125 C11.97354422 2.7234456 12.00298694 4.31842727 12.00439453 5.91210938 C12.00754669 6.9298645 12.01069885 7.94761963 12.01394653 8.99621582 C12.0119223 10.10348022 12.00989807 11.21074463 12.0078125 12.3515625 C12.00924759 14.04388 12.00924759 14.04388 12.01071167 15.77038574 C12.01139368 18.16121476 12.00953797 20.55204561 12.00537109 22.94287109 C12.00002316 26.61690401 12.00531543 30.29081467 12.01171875 33.96484375 C12.01105797 36.28125027 12.00977682 38.59765672 12.0078125 40.9140625 C12.00983673 42.0213269 12.01186096 43.12859131 12.01394653 44.26940918 C12.01079437 45.28716431 12.00764221 46.30491943 12.00439453 47.35351562 C12.00359894 48.25428833 12.00280334 49.15506104 12.00198364 50.08312988 C11.875 52.1328125 11.875 52.1328125 10.875 53.1328125 C8.54339945 53.23190552 6.20870058 53.26251754 3.875 53.2578125 C2.59625 53.26039062 1.3175 53.26296875 0 53.265625 C-3.125 53.1328125 -3.125 53.1328125 -4.125 52.1328125 C-4.22354422 50.5421794 -4.25298694 48.94719773 -4.25439453 47.35351562 C-4.25754669 46.3357605 -4.26069885 45.31800537 -4.26394653 44.26940918 C-4.2619223 43.16214478 -4.25989807 42.05488037 -4.2578125 40.9140625 C-4.25876923 39.78585083 -4.25972595 38.65763916 -4.26071167 37.49523926 C-4.26139368 35.10441024 -4.25953797 32.71357939 -4.25537109 30.32275391 C-4.25002316 26.64872099 -4.25531543 22.97481033 -4.26171875 19.30078125 C-4.26105797 16.98437473 -4.25977682 14.66796828 -4.2578125 12.3515625 C-4.26084885 10.69066589 -4.26084885 10.69066589 -4.26394653 8.99621582 C-4.26079437 7.97846069 -4.25764221 6.96070557 -4.25439453 5.91210938 C-4.25359894 5.01133667 -4.25280334 4.11056396 -4.25198364 3.18249512 C-4.0430436 -0.19007126 -3.46009551 0.14705406 0 0 Z " fill="#6164F0" transform="translate(182.125,51.8671875)"/>
<path d="M0 0 C1.27875 0.00257812 2.5575 0.00515625 3.875 0.0078125 C5.15375 0.00523438 6.4325 0.00265625 7.75 0 C10.875 0.1328125 10.875 0.1328125 11.875 1.1328125 C11.97354422 2.7234456 12.00298694 4.31842727 12.00439453 5.91210938 C12.00754669 6.9298645 12.01069885 7.94761963 12.01394653 8.99621582 C12.0119223 10.10348022 12.00989807 11.21074463 12.0078125 12.3515625 C12.00924759 14.04388 12.00924759 14.04388 12.01071167 15.77038574 C12.01139368 18.16121476 12.00953797 20.55204561 12.00537109 22.94287109 C12.00002316 26.61690401 12.00531543 30.29081467 12.01171875 33.96484375 C12.01105797 36.28125027 12.00977682 38.59765672 12.0078125 40.9140625 C12.00983673 42.0213269 12.01186096 43.12859131 12.01394653 44.26940918 C12.01079437 45.28716431 12.00764221 46.30491943 12.00439453 47.35351562 C12.00359894 48.25428833 12.00280334 49.15506104 12.00198364 50.08312988 C11.875 52.1328125 11.875 52.1328125 10.875 53.1328125 C8.54339945 53.23190552 6.20870058 53.26251754 3.875 53.2578125 C2.59625 53.26039062 1.3175 53.26296875 0 53.265625 C-3.125 53.1328125 -3.125 53.1328125 -4.125 52.1328125 C-4.22354422 50.5421794 -4.25298694 48.94719773 -4.25439453 47.35351562 C-4.25754669 46.3357605 -4.26069885 45.31800537 -4.26394653 44.26940918 C-4.2619223 43.16214478 -4.25989807 42.05488037 -4.2578125 40.9140625 C-4.25876923 39.78585083 -4.25972595 38.65763916 -4.26071167 37.49523926 C-4.26139368 35.10441024 -4.25953797 32.71357939 -4.25537109 30.32275391 C-4.25002316 26.64872099 -4.25531543 22.97481033 -4.26171875 19.30078125 C-4.26105797 16.98437473 -4.25977682 14.66796828 -4.2578125 12.3515625 C-4.26084885 10.69066589 -4.26084885 10.69066589 -4.26394653 8.99621582 C-4.26079437 7.97846069 -4.25764221 6.96070557 -4.25439453 5.91210938 C-4.25359894 5.01133667 -4.25280334 4.11056396 -4.25198364 3.18249512 C-4.0430436 -0.19007126 -3.46009551 0.14705406 0 0 Z " fill="#6164F0" transform="translate(103.125,51.8671875)"/>
<path d="M0 0 C2.61947644 2.41797825 3.7805279 4.02456844 4.5625 7.5 C3.71291608 11.27592854 2.07076729 12.7132584 -1 15 C-4.5 15.625 -4.5 15.625 -8 15 C-11.37564269 12.55804571 -12.75320045 11.0769435 -13.6875 7 C-12.90159408 3.57059234 -11.63158301 1.93477341 -8.78515625 -0.14453125 C-5.53599179 -1.70157067 -3.31572655 -1.10524218 0 0 Z " fill="#6164F0" transform="translate(191,32)"/>
<path d="M0 0 C2.61947644 2.41797825 3.7805279 4.02456844 4.5625 7.5 C3.71291608 11.27592854 2.07076729 12.7132584 -1 15 C-4.5 15.625 -4.5 15.625 -8 15 C-11.37564269 12.55804571 -12.75320045 11.0769435 -13.6875 7 C-12.90159408 3.57059234 -11.63158301 1.93477341 -8.78515625 -0.14453125 C-5.53599179 -1.70157067 -3.31572655 -1.10524218 0 0 Z " fill="#6164F0" transform="translate(112,32)"/>
<path d="M0 0 C0.33 0 0.66 0 1 0 C1.05057624 7.79619588 1.08568114 15.5923497 1.10986328 23.38867188 C1.11994089 26.04265931 1.13360313 28.6966356 1.15087891 31.35058594 C1.17504992 35.15823107 1.18646535 38.96572984 1.1953125 42.7734375 C1.20563507 43.96617279 1.21595764 45.15890808 1.22659302 46.38778687 C1.22674408 47.48877716 1.22689514 48.58976746 1.22705078 49.72412109 C1.231492 50.69674896 1.23593323 51.66937683 1.24050903 52.67147827 C1 55 1 55 -1 57 C-2 56 -2 56 -2.12025452 53.82969666 C-2.11803391 52.87261307 -2.11581329 51.91552948 -2.11352539 50.92944336 C-2.11344986 49.84839828 -2.11337433 48.76735321 -2.11329651 47.65354919 C-2.10813522 46.4775264 -2.10297394 45.3015036 -2.09765625 44.08984375 C-2.0962413 42.89267227 -2.09482635 41.69550079 -2.09336853 40.46205139 C-2.08774979 36.62050934 -2.07519411 32.77902457 -2.0625 28.9375 C-2.05748741 26.34049563 -2.05292409 23.74349035 -2.04882812 21.14648438 C-2.03777427 14.76430321 -2.02101792 8.3821557 -2 2 C-1.34 2 -0.68 2 0 2 C0 1.34 0 0.68 0 0 Z " fill="#585CEF" transform="translate(57,48)"/>
</svg>
